<?xml version="1.0" encoding="utf-8"?>
<!-- Generator: Adobe Illustrator 23.0.6, SVG Export Plug-In . SVG Version: 6.00 Build 0)  -->
<svg version="1.1" id="Layer_1" xmlns="http://www.w3.org/2000/svg" xmlns:xlink="http://www.w3.org/1999/xlink" x="0px" y="0px"
	 viewBox="0 0 144.15 55.5" style="enable-background:new 0 0 144.15 55.5;" xml:space="preserve">
<style type="text/css">
	.st0{fill:none;}
	.st1{fill:#DF557D;}
	.st2{fill:#E25179;}
	.st3{fill:#48B7CD;}
	.st4{fill:#30B2CA;}
	.st5{fill:#403C69;}
</style>
<g>
	<path class="st0" d="M64.31,14.74c-3.81-3.1-6.89-5.45-9.76-5.45c-3.06,0-6.37,2.69-10.56,6.11c-2.35,1.91-4.96,4.04-7.99,6.08
		h3.68C50.66,21.48,58.32,18.46,64.31,14.74z"/>
	<path class="st0" d="M89.59,9.29c-2.86,0-5.94,2.36-9.76,5.45c5.99,3.72,13.65,6.73,24.63,6.73h3.68
		c-3.03-2.04-5.64-4.17-7.99-6.08C95.96,11.98,92.65,9.29,89.59,9.29z"/>
	<path class="st0" d="M104.47,30.77c-15.13,0-25.04-4.85-32.39-10c-7.36,5.15-17.26,10-32.39,10h-2.14
		c0.06,0.04,0.12,0.08,0.19,0.12c0.57,0.35,1.13,0.69,1.69,1.05c0.1,0.06,0.2,0.13,0.3,0.19c0.55,0.35,1.09,0.7,1.62,1.05
		c0.11,0.08,0.23,0.15,0.34,0.23c0.48,0.32,0.96,0.64,1.44,0.95c0.29,0.19,0.58,0.39,0.86,0.58c0.13,0.09,0.25,0.17,0.38,0.26
		c0.25,0.17,0.5,0.34,0.75,0.51c8.35,5.64,15.57,10.52,26.96,10.52c11.39,0,18.6-4.88,26.96-10.52c0.21-0.14,0.43-0.29,0.64-0.43
		c0.2-0.13,0.39-0.27,0.59-0.4c0.24-0.16,0.48-0.33,0.73-0.49c0.49-0.33,0.99-0.66,1.49-0.99c0.11-0.07,0.21-0.14,0.32-0.21
		c0.54-0.35,1.08-0.71,1.64-1.06c0.1-0.06,0.19-0.12,0.29-0.18c0.56-0.35,1.12-0.7,1.7-1.05c0.06-0.04,0.12-0.08,0.18-0.11H104.47z"
		/>
	<path class="st1" d="M39.72,32.12c-0.1-0.06-0.2-0.13-0.3-0.19C39.52,31.99,39.62,32.06,39.72,32.12z"/>
	<path class="st1" d="M41.68,33.39c-0.11-0.08-0.23-0.15-0.34-0.23C41.46,33.24,41.57,33.32,41.68,33.39z"/>
	<path class="st2" d="M39.68,30.77c15.13,0,25.04-4.85,32.39-10c-2.6-1.82-4.88-3.67-6.96-5.37c-0.27-0.22-0.54-0.44-0.8-0.65
		c-5.99,3.72-13.65,6.73-24.63,6.73H36c-2.35,1.58-4.95,3.11-7.89,4.46c3.52,1.45,6.67,3.16,9.62,4.95
		c-0.06-0.04-0.12-0.08-0.19-0.12H39.68z"/>
	<path class="st1" d="M43.98,34.93c-0.29-0.19-0.57-0.39-0.86-0.58C43.41,34.54,43.7,34.73,43.98,34.93z"/>
	<path class="st1" d="M100.26,34.86c-0.2,0.13-0.39,0.27-0.59,0.4C99.87,35.13,100.07,34.99,100.26,34.86z"/>
	<path class="st1" d="M104.44,32.12c-0.55,0.35-1.1,0.7-1.64,1.06C103.34,32.82,103.89,32.47,104.44,32.12z"/>
	<path class="st1" d="M106.42,30.88c-0.57,0.35-1.14,0.7-1.7,1.05C105.28,31.58,105.85,31.23,106.42,30.88z"/>
	<path class="st1" d="M102.48,33.38c-0.5,0.33-1,0.66-1.49,0.99C101.48,34.04,101.98,33.71,102.48,33.38z"/>
	<path class="st1" d="M44.36,35.18c0.25,0.17,0.5,0.34,0.75,0.51c8.35,5.64,15.57,10.52,26.96,10.52c0,0,0,0,0,0
		c-11.39,0-18.6-4.88-26.96-10.52C44.87,35.52,44.61,35.35,44.36,35.18z"/>
	<path class="st2" d="M89.59,9.29c3.06,0,6.37,2.69,10.56,6.11c2.35,1.91,4.96,4.04,7.99,6.08h31.36
		c-17.17,0-26.22-7.37-33.48-13.28C100.84,3.98,95.96,0,89.59,0S78.34,3.98,73.16,8.19c-0.36,0.29-0.72,0.59-1.09,0.89
		c2.32,1.88,4.84,3.85,7.76,5.66C83.65,11.65,86.73,9.29,89.59,9.29z"/>
	<path class="st1" d="M72.07,55.5C72.07,55.5,72.07,55.5,72.07,55.5c14.23,0,23.35-6.16,32.16-12.11
		c9.01-6.09,17.54-11.85,32.25-12.55c-14.7,0.7-23.24,6.47-32.25,12.55C95.42,49.35,86.3,55.5,72.07,55.5z"/>
	<path class="st3" d="M100.99,34.37c-0.24,0.16-0.49,0.33-0.73,0.49C100.51,34.7,100.75,34.54,100.99,34.37z"/>
	<path class="st3" d="M104.72,31.93c-0.1,0.06-0.19,0.12-0.29,0.18C104.53,32.05,104.63,31.99,104.72,31.93z"/>
	<path class="st3" d="M102.8,33.17c-0.11,0.07-0.21,0.14-0.32,0.21C102.59,33.31,102.69,33.24,102.8,33.17z"/>
	<path class="st4" d="M44,15.4c4.19-3.41,7.5-6.11,10.56-6.11c2.86,0,5.94,2.36,9.76,5.45c2.92-1.81,5.44-3.78,7.76-5.66
		c-0.37-0.3-0.73-0.59-1.09-0.89C65.81,3.98,60.92,0,54.56,0S43.3,3.98,38.13,8.19c-7.27,5.92-16.31,13.28-33.48,13.28H36
		C39.04,19.43,41.65,17.31,44,15.4z"/>
	<path class="st3" d="M44.36,35.18c-0.13-0.09-0.25-0.17-0.38-0.26C44.11,35.01,44.24,35.1,44.36,35.18z"/>
	<path class="st3" d="M41.34,33.17c-0.53-0.35-1.08-0.7-1.62-1.05C40.26,32.47,40.81,32.82,41.34,33.17z"/>
	<path class="st3" d="M7.67,30.84c14.7,0.7,23.24,6.47,32.25,12.55c8.81,5.95,17.93,12.11,32.16,12.11c0,0,0,0,0,0
		c-14.23,0-23.34-6.16-32.16-12.11C30.91,37.3,22.37,31.54,7.67,30.84z"/>
	<path class="st3" d="M39.42,31.93c-0.56-0.35-1.12-0.7-1.69-1.05C38.3,31.23,38.86,31.58,39.42,31.93z"/>
	<path class="st4" d="M79.83,14.74c-0.26,0.21-0.53,0.43-0.8,0.65c-2.08,1.69-4.36,3.55-6.96,5.37c7.36,5.15,17.26,10,32.39,10h2.14
		c-0.06,0.04-0.12,0.07-0.18,0.11c2.94-1.78,6.1-3.49,9.61-4.94c-2.94-1.35-5.54-2.88-7.89-4.46h-3.68
		C93.48,21.48,85.83,18.46,79.83,14.74z"/>
	<path class="st3" d="M43.12,34.35c-0.47-0.32-0.95-0.64-1.44-0.95C42.17,33.71,42.64,34.03,43.12,34.35z"/>
	<path class="st3" d="M72.07,46.21C72.07,46.21,72.07,46.21,72.07,46.21c11.39,0,18.6-4.88,26.96-10.52
		c0.21-0.14,0.43-0.29,0.64-0.43c-0.21,0.14-0.43,0.29-0.64,0.43C90.68,41.34,83.46,46.21,72.07,46.21z"/>
	<path class="st1" d="M139.5,21.48h-31.36c2.35,1.58,4.95,3.11,7.89,4.46c-3.51,1.45-6.67,3.16-9.61,4.94
		c-0.57,0.35-1.14,0.7-1.7,1.05c-0.1,0.06-0.19,0.12-0.29,0.18c-0.55,0.35-1.1,0.7-1.64,1.06c-0.11,0.07-0.21,0.14-0.32,0.21
		c-0.5,0.33-1,0.66-1.49,0.99c-0.24,0.16-0.49,0.33-0.73,0.49c-0.2,0.13-0.39,0.27-0.59,0.4c-0.21,0.14-0.43,0.29-0.64,0.43
		c-8.35,5.64-15.57,10.52-26.96,10.52c0,0,0,0,0,0s0,0,0,0c-11.39,0-18.6-4.88-26.96-10.52c-0.25-0.17-0.5-0.34-0.75-0.51
		c-0.13-0.09-0.25-0.17-0.38-0.26c-0.29-0.19-0.57-0.39-0.86-0.58c-0.47-0.32-0.95-0.64-1.44-0.95c-0.11-0.08-0.23-0.15-0.34-0.23
		c-0.53-0.35-1.08-0.7-1.62-1.05c-0.1-0.06-0.2-0.13-0.3-0.19c-0.56-0.35-1.12-0.7-1.69-1.05c-2.94-1.79-6.1-3.49-9.62-4.95
		c2.94-1.35,5.54-2.88,7.89-4.46H4.65C2.08,21.48,0,23.56,0,26.12s2.08,4.65,4.65,4.65c1.04,0,2.04,0.02,3.02,0.07
		c14.7,0.7,23.24,6.47,32.25,12.55c8.81,5.95,17.93,12.11,32.16,12.11c14.23,0,23.34-6.16,32.16-12.11
		c9.01-6.09,17.55-11.85,32.25-12.55c0.98-0.05,1.99-0.07,3.02-0.07c2.57,0,4.65-2.08,4.65-4.65S142.07,21.48,139.5,21.48z"/>
	<path class="st5" d="M139.5,21.48h-31.36c2.35,1.58,4.95,3.11,7.89,4.46c-3.51,1.45-6.67,3.16-9.61,4.94
		c-0.57,0.35-1.14,0.7-1.7,1.05c-0.1,0.06-0.19,0.12-0.29,0.18c-0.55,0.35-1.1,0.7-1.64,1.06c-0.11,0.07-0.21,0.14-0.32,0.21
		c-0.5,0.33-1,0.66-1.49,0.99c-0.24,0.16-0.49,0.33-0.73,0.49c-0.2,0.13-0.39,0.27-0.59,0.4c-0.21,0.14-0.43,0.29-0.64,0.43
		c-8.35,5.64-15.57,10.52-26.96,10.52c0,0,0,0,0,0s0,0,0,0c-11.39,0-18.6-4.88-26.96-10.52c-0.25-0.17-0.5-0.34-0.75-0.51
		c-0.13-0.09-0.25-0.17-0.38-0.26c-0.29-0.19-0.57-0.39-0.86-0.58c-0.47-0.32-0.95-0.64-1.44-0.95c-0.11-0.08-0.23-0.15-0.34-0.23
		c-0.53-0.35-1.08-0.7-1.62-1.05c-0.1-0.06-0.2-0.13-0.3-0.19c-0.56-0.35-1.12-0.7-1.69-1.05c-2.94-1.79-6.1-3.49-9.62-4.95
		c2.94-1.35,5.54-2.88,7.89-4.46H4.65C2.08,21.48,0,23.56,0,26.12s2.08,4.65,4.65,4.65c1.04,0,2.04,0.02,3.02,0.07
		c14.7,0.7,23.24,6.47,32.25,12.55c8.81,5.95,17.93,12.11,32.16,12.11c14.23,0,23.34-6.16,32.16-12.11
		c9.01-6.09,17.55-11.85,32.25-12.55c0.98-0.05,1.99-0.07,3.02-0.07c2.57,0,4.65-2.08,4.65-4.65S142.07,21.48,139.5,21.48z"/>
	<path class="st1" d="M65.12,15.4c2.08,1.69,4.36,3.55,6.96,5.37c2.6-1.82,4.88-3.67,6.96-5.37c0.27-0.22,0.54-0.44,0.8-0.65
		c-2.92-1.81-5.44-3.78-7.76-5.66c-2.32,1.88-4.84,3.85-7.76,5.66C64.58,14.96,64.84,15.17,65.12,15.4z"/>
	<path class="st5" d="M65.12,15.4c2.08,1.69,4.36,3.55,6.96,5.37c2.6-1.82,4.88-3.67,6.96-5.37c0.27-0.22,0.54-0.44,0.8-0.65
		c-2.92-1.81-5.44-3.78-7.76-5.66c-2.32,1.88-4.84,3.85-7.76,5.66C64.58,14.96,64.84,15.17,65.12,15.4z"/>
</g>
</svg>
