<?xml version="1.0" encoding="utf-8"?>
<!-- Generator: Adobe Illustrator 23.0.6, SVG Export Plug-In . SVG Version: 6.00 Build 0)  -->
<svg version="1.1" id="Layer_1" xmlns="http://www.w3.org/2000/svg" xmlns:xlink="http://www.w3.org/1999/xlink" x="0px" y="0px"
	 viewBox="0 0 2480.57 273.4" style="enable-background:new 0 0 2480.57 273.4;" xml:space="preserve">
<style type="text/css">
	.st0{fill:#3A4E6A;}
	.st1{fill:#FFFFFF;}
	.st2{fill:#3F5373;}
	.st3{fill:#EE6D8E;}
	.st4{clip-path:url(#SVGID_2_);fill:#4FC5D6;}
	.st5{clip-path:url(#SVGID_4_);fill:#4FC5D6;}
	.st6{clip-path:url(#SVGID_6_);fill:#4FC5D6;}
	.st7{clip-path:url(#SVGID_8_);fill:#4FC5D6;}
	.st8{clip-path:url(#SVGID_10_);fill:#4FC5D6;}
	.st9{clip-path:url(#SVGID_12_);fill:#4FC5D6;}
	.st10{clip-path:url(#SVGID_14_);fill:#4FC5D6;}
	.st11{clip-path:url(#SVGID_16_);fill:#4FC5D6;}
	.st12{clip-path:url(#SVGID_18_);fill:#4FC5D6;}
</style>
<rect x="2118.09" y="120.13" class="st0" width="362.48" height="32.99"/>
<path class="st1" d="M1875.28,252.43h-0.01c-2.43,0-4.75-0.51-6.84-1.47c-50.8-6.39-84.24-32.48-113.87-55.57
	c-9.07-7.07-17.66-13.78-26.22-19.47c-26.97-17.95-66.67-21.85-87.93-22.58c-9.12-0.34-16.29-7.88-16.15-16.98
	c0.15-9.12,7.56-16.44,16.68-16.44l125.2-0.34c21.33-0.77,60.82-4.73,87.67-22.6c15.26-10.16,26.35-19.32,36.13-27.43
	c18.41-15.23,32.95-27.29,56.15-27.29h0.62c23.18,0,37.72,12.06,56.12,27.29c9.79,8.12,20.88,17.27,36.14,27.43
	c26.97,17.95,66.67,21.85,87.94,22.6c9,0.3,16.15,7.69,16.15,16.7v0.34c0,9.01-7.15,16.4-16.15,16.72
	c-21.27,0.72-60.97,4.62-87.94,22.58c-8.55,5.69-17.14,12.4-26.22,19.47C1980.15,220.8,1939.58,252.43,1875.28,252.43
	 M1754.03,153.02c7.03,5.05,13.91,10.4,21.09,16.02c28.36,22.09,57.69,44.94,101.76,49.24c1.14,0.09,2.23,0.32,3.27,0.64
	c49.98-1.49,81.5-26.09,112.04-49.88c9.59-7.5,18.66-14.55,28.26-20.96c6.84-4.54,14.17-8.39,21.76-11.63
	c-7.59-3.24-14.92-7.07-21.76-11.63c-16.72-11.12-29.03-21.32-38.93-29.52c-16.53-13.68-23.81-19.38-34.22-19.6
	c-0.14,0-0.29,0.02-0.43,0.04h-0.93c-0.14-0.02-0.28-0.04-0.43-0.04c-10.4,0.21-17.71,5.9-34.24,19.6
	c-9.89,8.2-22.23,18.4-38.94,29.52c-32.13,21.38-75.01,27.11-105.31,28.18h-0.53L1754.03,153.02z"/>
<path class="st1" d="M1875.29,251.64c-0.55,0-1.1-0.02-1.64-0.08c-53.74-5.22-88.46-32.29-119.09-56.17
	c-9.07-7.07-17.66-13.78-26.22-19.47c-26.97-17.96-66.67-21.85-87.93-22.58c-9.01-0.32-16.15-7.71-16.15-16.72v-0.34
	c0-9.01,7.13-16.4,16.15-16.7c21.26-0.74,60.96-4.64,87.93-22.6c15.26-10.16,26.35-19.32,36.13-27.43
	c18.41-15.23,32.94-27.29,56.14-27.29h0.62c23.18,0,37.72,12.06,56.12,27.29c9.8,8.12,20.88,17.28,36.15,27.43
	c26.85,17.87,66.34,21.83,87.67,22.6l125.2,0.34c9.22,0,16.7,7.52,16.68,16.74c-0.03,9.22-7.52,16.68-16.72,16.68h-0.04L2000.81,153
	h-0.53c-30.3-1.07-73.16-6.8-105.31-28.18c-16.71-11.12-29.03-21.32-38.92-29.52c-16.53-13.68-23.82-19.38-34.23-19.6
	c-0.14,0-0.29,0.02-0.44,0.04h-0.92c-0.15-0.02-0.28-0.04-0.43-0.04c-10.41,0.21-17.71,5.92-34.24,19.6
	c-9.89,8.2-22.21,18.4-38.92,29.52c-6.85,4.56-14.16,8.39-21.76,11.63c7.59,3.24,14.91,7.09,21.76,11.63
	c9.6,6.41,18.66,13.46,28.24,20.96c28.36,22.09,57.69,44.94,101.76,49.24c9.19,0.89,15.92,9.05,15.03,18.23
	C1891.06,245.17,1883.79,251.64,1875.29,251.64"/>
<rect y="120.13" class="st1" width="1670.01" height="32.99"/>
<rect x="2118.09" y="120.13" class="st2" width="362.48" height="32.99"/>
<path class="st3" d="M1678.89,157.51c-6.31-1.2-12.46-2.07-18.21-2.71C1666.42,155.43,1672.57,156.31,1678.89,157.51"/>
<path class="st3" d="M1685.24,158.82c-2.13-0.48-4.25-0.91-6.35-1.31C1680.99,157.91,1683.11,158.34,1685.24,158.82"/>
<path class="st3" d="M1657.84,154.5c-1.87-0.19-3.69-0.34-5.45-0.48C1654.15,154.16,1655.97,154.32,1657.84,154.5"/>
<path class="st3" d="M1649.79,153.83c-1.7-0.12-3.34-0.21-4.9-0.29C1646.45,153.61,1648.09,153.71,1649.79,153.83"/>
<path class="st3" d="M1766.5,153.01h0.53c30.3-1.07,73.18-6.8,105.31-28.18c4.02-2.67,7.78-5.29,11.32-7.85
	c-11.11-8.02-20-15.37-27.49-21.57c-0.77,0.52-1.55,1.05-2.35,1.58c-26.85,17.87-66.34,21.83-87.67,22.6l-11.67,0.03
	c-2.44,1.71-4.96,3.45-7.61,5.21c-6.85,4.56-14.16,8.39-21.76,11.63c7.59,3.24,14.91,7.09,21.76,11.63
	c3.07,2.05,6.09,4.18,9.09,6.36c-0.65-0.47-1.29-0.95-1.93-1.42L1766.5,153.01z"/>
<path class="st3" d="M2126.29,153.34l-113-0.31c-7.04,5.03-13.92,10.39-21.1,16c-30.54,23.79-62.06,48.39-112.04,49.88
	c-1.04-0.32-2.13-0.55-3.26-0.64c9.19,0.9,15.92,9.05,15.02,18.23c-0.84,8.65-8.11,15.12-16.61,15.12c-0.55,0-1.1-0.02-1.64-0.08
	c-1.75-0.17-3.47-0.36-5.18-0.58c2.08,0.95,4.38,1.45,6.8,1.45h0.01c64.3,0,104.87-31.63,137.47-57.04
	c9.08-7.07,17.67-13.78,26.22-19.47c26.96-17.96,66.67-21.85,87.93-22.58c0.29-0.01,0.56-0.05,0.84-0.07
	c-0.47,0.04-0.94,0.07-1.42,0.07h-0.04V153.34z"/>
<path class="st3" d="M2143.05,136.28c0-9.01-7.15-16.4-16.15-16.7c-21.27-0.74-60.97-4.64-87.93-22.6
	c-15.26-10.16-26.35-19.32-36.14-27.43c-18.4-15.23-32.94-27.29-56.12-27.29h-0.62c-23.2,0-37.73,12.06-56.15,27.29
	c-2.03,1.68-4.12,3.42-6.29,5.19c7.74,6.33,16.52,13.22,27.5,20.66c0.04-0.03,0.08-0.07,0.12-0.1c16.53-13.7,23.83-19.38,34.24-19.6
	c0.15,0,0.29,0.02,0.43,0.04h0.93c0.14-0.02,0.29-0.04,0.43-0.04c10.4,0.21,17.69,5.92,34.22,19.6c8.33,6.9,18.39,15.22,31.32,24.31
	l113.54,0.31c9.22,0,16.69,7.51,16.68,16.72c0-0.01,0-0.01,0-0.02v-0.34H2143.05z"/>
<path class="st3" d="M1754.56,195.39c-4.54-3.53-8.95-6.98-13.3-10.25C1745.61,188.41,1750.02,191.85,1754.56,195.39"/>
<g>
	<g>
		<g>
			<defs>
				<rect id="SVGID_1_" x="2143.02" y="136.65" width="0.03" height="0.48"/>
			</defs>
			<clipPath id="SVGID_2_">
				<use xlink:href="#SVGID_1_"  style="overflow:visible;"/>
			</clipPath>
			<path class="st4" d="M2143.05,136.67c0-0.01,0-0.01,0-0.02c0,0.16-0.02,0.32-0.02,0.48
				C2143.03,136.97,2143.05,136.82,2143.05,136.67"/>
		</g>
	</g>
</g>
<g>
	<g>
		<g>
			<defs>
				<rect id="SVGID_3_" x="1841.92" y="245.53" width="26.55" height="5.45"/>
			</defs>
			<clipPath id="SVGID_4_">
				<use xlink:href="#SVGID_3_"  style="overflow:visible;"/>
			</clipPath>
			<path class="st5" d="M1841.92,245.53c8.31,2.4,17.13,4.26,26.55,5.45c-0.01-0.01-0.03-0.01-0.04-0.02
				C1859.02,249.78,1850.22,247.92,1841.92,245.53"/>
		</g>
	</g>
</g>
<g>
	<g>
		<g>
			<defs>
				<rect id="SVGID_5_" x="1624.27" y="42.27" width="259.39" height="94.1"/>
			</defs>
			<clipPath id="SVGID_6_">
				<use xlink:href="#SVGID_5_"  style="overflow:visible;"/>
			</clipPath>
			<path class="st6" d="M1640.95,119.93l113.53-0.31c12.93-9.09,22.99-17.41,31.32-24.31c16.53-13.67,23.83-19.38,34.24-19.6
				c0.15,0,0.28,0.02,0.42,0.04h0.92c0.15-0.02,0.3-0.04,0.44-0.04c10.41,0.21,17.7,5.92,34.23,19.6c0.04,0.03,0.08,0.07,0.12,0.1
				c10.98-7.44,19.76-14.33,27.49-20.66c-2.17-1.77-4.27-3.51-6.3-5.19c-18.4-15.23-32.94-27.29-56.12-27.29h-0.62
				c-23.19,0-37.73,12.06-56.14,27.29c-9.79,8.12-20.87,17.27-36.13,27.43c-26.97,17.95-66.67,21.85-87.93,22.6
				c-9.01,0.3-16.14,7.69-16.14,16.7v0.09C1624.42,127.25,1631.83,119.93,1640.95,119.93"/>
		</g>
	</g>
</g>
<g>
	<g>
		<g>
			<defs>
				<rect id="SVGID_7_" x="1883.66" y="95.41" width="158.55" height="57.63"/>
			</defs>
			<clipPath id="SVGID_8_">
				<use xlink:href="#SVGID_7_"  style="overflow:visible;"/>
			</clipPath>
			<path class="st7" d="M1894.97,124.83c32.14,21.38,75.01,27.11,105.3,28.18h0.54l12.47,0.03c2.36-1.69,4.75-3.34,7.16-4.95
				c6.84-4.54,14.17-8.39,21.76-11.63c-7.59-3.24-14.92-7.07-21.76-11.63c-2.65-1.76-5.18-3.5-7.61-5.21l-11.66-0.03
				c-21.33-0.77-60.82-4.73-87.67-22.6c-0.8-0.53-1.57-1.05-2.35-1.58c-7.49,6.21-16.38,13.55-27.5,21.57
				C1887.19,119.53,1890.95,122.15,1894.97,124.83"/>
		</g>
	</g>
</g>
<g>
	<g>
		<g>
			<defs>
				<rect id="SVGID_9_" x="1624.27" y="136.37" width="0.03" height="0.8"/>
			</defs>
			<clipPath id="SVGID_10_">
				<use xlink:href="#SVGID_9_"  style="overflow:visible;"/>
			</clipPath>
			<path class="st8" d="M1624.27,136.63c0,0.19,0.02,0.36,0.03,0.55c-0.01-0.27-0.03-0.53-0.03-0.8V136.63z"/>
		</g>
	</g>
</g>
<g>
	<g>
		<g>
			<defs>
				<rect id="SVGID_11_" x="1755.23" y="195.91" width="16.41" height="12.57"/>
			</defs>
			<clipPath id="SVGID_12_">
				<use xlink:href="#SVGID_11_"  style="overflow:visible;"/>
			</clipPath>
			<path class="st9" d="M1771.64,208.48c-5.65-4.19-11.09-8.43-16.41-12.57C1760.54,200.05,1765.99,204.29,1771.64,208.48"/>
		</g>
	</g>
</g>
<g>
	<g>
		<g>
			<defs>
				<rect id="SVGID_13_" x="1630.03" y="149.25" width="10.33" height="4.09"/>
			</defs>
			<clipPath id="SVGID_14_">
				<use xlink:href="#SVGID_13_"  style="overflow:visible;"/>
			</clipPath>
			<path class="st10" d="M1640.36,153.34c-3.96-0.16-7.55-1.68-10.33-4.09C1632.81,151.67,1636.4,153.19,1640.36,153.34"/>
		</g>
	</g>
</g>
<path class="st3" d="M1875.29,251.64c8.5,0,15.77-6.47,16.61-15.12c0.9-9.18-5.83-17.34-15.02-18.23c0,0,0,0-0.01,0
	c-5.23-0.51-10.26-1.29-15.1-2.29c-0.49-0.1-0.97-0.2-1.46-0.31c-3.28-0.71-6.47-1.54-9.58-2.45c-2.67-0.78-5.29-1.63-7.85-2.55
	c-1.15-0.41-2.29-0.84-3.43-1.28c-2.26-0.88-4.48-1.8-6.67-2.77c-2.19-0.97-4.33-1.98-6.44-3.03s-4.19-2.15-6.24-3.27
	c-3.07-1.69-6.07-3.46-9.02-5.29c-1.96-1.22-3.9-2.47-5.82-3.74c-1.92-1.27-3.81-2.56-5.68-3.88c-4.69-3.28-9.26-6.67-13.76-10.11
	c-3.6-2.75-7.16-5.52-10.71-8.28c-0.06-0.05-0.12-0.09-0.18-0.14c-1.24-0.97-2.47-1.93-3.7-2.89c-0.81-0.63-1.61-1.26-2.42-1.88
	c-1.1-0.86-2.21-1.7-3.3-2.55c-0.51-0.39-1.02-0.78-1.52-1.17c-1.28-0.98-2.57-1.95-3.85-2.9c-0.58-0.43-1.16-0.87-1.74-1.3
	c-0.81-0.6-1.63-1.19-2.44-1.79c-3-2.18-6.02-4.3-9.09-6.35c-6.85-4.54-14.16-8.39-21.76-11.63c7.59-3.24,14.91-7.07,21.76-11.63
	c2.65-1.76,5.17-3.5,7.61-5.21l-113.53,0.31c-9.11,0-16.53,7.33-16.68,16.44c0,0.27,0.02,0.53,0.03,0.8
	c0.01,0.35,0.02,0.7,0.05,1.05c0.02,0.17,0.05,0.34,0.07,0.52c0.05,0.38,0.1,0.75,0.17,1.12c0.03,0.15,0.07,0.3,0.11,0.45
	c0.09,0.38,0.17,0.75,0.28,1.12c0.05,0.15,0.1,0.3,0.16,0.45c0.12,0.35,0.23,0.71,0.38,1.05c0.07,0.17,0.15,0.34,0.23,0.5
	c0.14,0.31,0.28,0.63,0.44,0.93c0.11,0.2,0.23,0.4,0.35,0.6c0.15,0.25,0.29,0.51,0.45,0.75c0.16,0.25,0.34,0.48,0.51,0.72
	c0.13,0.18,0.26,0.37,0.4,0.55c0.23,0.29,0.48,0.56,0.73,0.84c0.1,0.11,0.19,0.23,0.3,0.34c0.31,0.33,0.65,0.64,0.99,0.94
	c0.05,0.04,0.09,0.09,0.14,0.14c2.78,2.42,6.37,3.93,10.33,4.09c0.02,0,0.04,0,0.06,0c1.41,0.05,2.9,0.11,4.47,0.19
	c1.56,0.08,3.2,0.18,4.9,0.29c0.85,0.06,1.72,0.12,2.6,0.19c1.76,0.14,3.58,0.3,5.45,0.48c0.94,0.09,1.88,0.19,2.84,0.3
	c5.75,0.63,11.9,1.51,18.21,2.71c2.1,0.4,4.22,0.84,6.35,1.31c2,0.45,4.02,0.93,6.03,1.45c1.01,0.26,2.01,0.53,3.02,0.81
	c2.01,0.56,4.01,1.16,6.01,1.8c2.99,0.96,5.95,2.01,8.86,3.17c1.94,0.77,3.86,1.59,5.74,2.45c1.26,0.58,2.51,1.19,3.74,1.81
	c3.37,1.7,6.63,3.57,9.72,5.62c1.07,0.71,2.14,1.44,3.21,2.18c3.21,2.23,6.44,4.58,9.7,7.04c4.35,3.27,8.76,6.72,13.3,10.25
	c0.22,0.17,0.45,0.35,0.67,0.52c5.32,4.14,10.76,8.38,16.41,12.57c0.03,0.02,0.07,0.05,0.1,0.07c0.87,0.65,1.75,1.29,2.63,1.94
	c0.14,0.1,0.28,0.2,0.42,0.3c0.81,0.59,1.62,1.18,2.44,1.76c0.22,0.16,0.43,0.31,0.65,0.47c0.76,0.54,1.52,1.08,2.29,1.62
	c0.28,0.2,0.56,0.39,0.84,0.59c0.73,0.51,1.46,1.02,2.2,1.52c0.32,0.22,0.65,0.44,0.97,0.67c0.71,0.48,1.42,0.96,2.14,1.44
	c0.36,0.24,0.72,0.48,1.09,0.72c0.7,0.46,1.4,0.92,2.1,1.37c0.39,0.25,0.78,0.51,1.17,0.76c0.69,0.44,1.38,0.88,2.07,1.31
	c0.42,0.26,0.83,0.52,1.26,0.78c0.68,0.42,1.37,0.84,2.06,1.26c0.44,0.26,0.88,0.53,1.32,0.79c0.68,0.41,1.37,0.81,2.06,1.21
	c0.45,0.27,0.91,0.53,1.37,0.79c0.69,0.4,1.38,0.79,2.08,1.18c0.47,0.26,0.94,0.52,1.41,0.78c0.7,0.38,1.4,0.76,2.1,1.14
	c0.48,0.26,0.97,0.51,1.45,0.77c0.71,0.37,1.42,0.74,2.14,1.1c0.49,0.25,0.98,0.49,1.47,0.74c0.73,0.36,1.46,0.73,2.2,1.08
	c0.49,0.24,0.98,0.47,1.47,0.7c0.75,0.36,1.51,0.71,2.27,1.06c0.48,0.22,0.97,0.43,1.45,0.65c0.78,0.35,1.57,0.7,2.36,1.04
	c0.47,0.2,0.95,0.4,1.42,0.6c0.82,0.35,1.64,0.69,2.48,1.02c0.45,0.18,0.9,0.36,1.35,0.53c0.87,0.34,1.74,0.68,2.63,1.01
	c0.41,0.15,0.82,0.3,1.24,0.45c0.94,0.34,1.88,0.68,2.83,1.01c0.36,0.12,0.72,0.24,1.07,0.36c1.02,0.35,2.05,0.69,3.08,1.02
	c0.26,0.08,0.53,0.16,0.8,0.25c1.14,0.36,2.28,0.71,3.44,1.05c0.12,0.04,0.25,0.07,0.37,0.11c8.3,2.39,17.11,4.25,26.51,5.43
	c0.01,0.01,0.03,0.01,0.04,0.02c1.71,0.21,3.43,0.41,5.18,0.58C1874.19,251.62,1874.74,251.64,1875.29,251.64"/>
<path class="st2" d="M1875.29,251.64c8.5,0,15.77-6.47,16.61-15.12c0.9-9.18-5.83-17.34-15.02-18.23c0,0,0,0-0.01,0
	c-5.23-0.51-10.26-1.29-15.1-2.29c-0.49-0.1-0.97-0.2-1.46-0.31c-3.28-0.71-6.47-1.54-9.58-2.45c-2.67-0.78-5.29-1.63-7.85-2.55
	c-1.15-0.41-2.29-0.84-3.43-1.28c-2.26-0.88-4.48-1.8-6.67-2.77c-2.19-0.97-4.33-1.98-6.44-3.03s-4.19-2.15-6.24-3.27
	c-3.07-1.69-6.07-3.46-9.02-5.29c-1.96-1.22-3.9-2.47-5.82-3.74c-1.92-1.27-3.81-2.56-5.68-3.88c-4.69-3.28-9.26-6.67-13.76-10.11
	c-3.6-2.75-7.16-5.52-10.71-8.28c-0.06-0.05-0.12-0.09-0.18-0.14c-1.24-0.97-2.47-1.93-3.7-2.89c-0.81-0.63-1.61-1.26-2.42-1.88
	c-1.1-0.86-2.21-1.7-3.3-2.55c-0.51-0.39-1.02-0.78-1.52-1.17c-1.28-0.98-2.57-1.95-3.85-2.9c-0.58-0.43-1.16-0.87-1.74-1.3
	c-0.81-0.6-1.63-1.19-2.44-1.79c-3-2.18-6.02-4.3-9.09-6.35c-6.85-4.54-14.16-8.39-21.76-11.63c7.59-3.24,14.91-7.07,21.76-11.63
	c2.65-1.76,5.17-3.5,7.61-5.21l-113.53,0.31c-9.11,0-16.53,7.33-16.68,16.44c0,0.27,0.02,0.53,0.03,0.8
	c0.01,0.35,0.02,0.7,0.05,1.05c0.02,0.17,0.05,0.34,0.07,0.52c0.05,0.38,0.1,0.75,0.17,1.12c0.03,0.15,0.07,0.3,0.11,0.45
	c0.09,0.38,0.17,0.75,0.28,1.12c0.05,0.15,0.1,0.3,0.16,0.45c0.12,0.35,0.23,0.71,0.38,1.05c0.07,0.17,0.15,0.34,0.23,0.5
	c0.14,0.31,0.28,0.63,0.44,0.93c0.11,0.2,0.23,0.4,0.35,0.6c0.15,0.25,0.29,0.51,0.45,0.75c0.16,0.25,0.34,0.48,0.51,0.72
	c0.13,0.18,0.26,0.37,0.4,0.55c0.23,0.29,0.48,0.56,0.73,0.84c0.1,0.11,0.19,0.23,0.3,0.34c0.31,0.33,0.65,0.64,0.99,0.94
	c0.05,0.04,0.09,0.09,0.14,0.14c2.78,2.42,6.37,3.93,10.33,4.09c0.02,0,0.04,0,0.06,0c1.41,0.05,2.9,0.11,4.47,0.19
	c1.56,0.08,3.2,0.18,4.9,0.29c0.85,0.06,1.72,0.12,2.6,0.19c1.76,0.14,3.58,0.3,5.45,0.48c0.94,0.09,1.88,0.19,2.84,0.3
	c5.75,0.63,11.9,1.51,18.21,2.71c2.1,0.4,4.22,0.84,6.35,1.31c2,0.45,4.02,0.93,6.03,1.45c1.01,0.26,2.01,0.53,3.02,0.81
	c2.01,0.56,4.01,1.16,6.01,1.8c2.99,0.96,5.95,2.01,8.86,3.17c1.94,0.77,3.86,1.59,5.74,2.45c1.26,0.58,2.51,1.19,3.74,1.81
	c3.37,1.7,6.63,3.57,9.72,5.62c1.07,0.71,2.14,1.44,3.21,2.18c3.21,2.23,6.44,4.58,9.7,7.04c4.35,3.27,8.76,6.72,13.3,10.25
	c0.22,0.17,0.45,0.35,0.67,0.52c5.32,4.14,10.76,8.38,16.41,12.57c0.03,0.02,0.07,0.05,0.1,0.07c0.87,0.65,1.75,1.29,2.63,1.94
	c0.14,0.1,0.28,0.2,0.42,0.3c0.81,0.59,1.62,1.18,2.44,1.76c0.22,0.16,0.43,0.31,0.65,0.47c0.76,0.54,1.52,1.08,2.29,1.62
	c0.28,0.2,0.56,0.39,0.84,0.59c0.73,0.51,1.46,1.02,2.2,1.52c0.32,0.22,0.65,0.44,0.97,0.67c0.71,0.48,1.42,0.96,2.14,1.44
	c0.36,0.24,0.72,0.48,1.09,0.72c0.7,0.46,1.4,0.92,2.1,1.37c0.39,0.25,0.78,0.51,1.17,0.76c0.69,0.44,1.38,0.88,2.07,1.31
	c0.42,0.26,0.83,0.52,1.26,0.78c0.68,0.42,1.37,0.84,2.06,1.26c0.44,0.26,0.88,0.53,1.32,0.79c0.68,0.41,1.37,0.81,2.06,1.21
	c0.45,0.27,0.91,0.53,1.37,0.79c0.69,0.4,1.38,0.79,2.08,1.18c0.47,0.26,0.94,0.52,1.41,0.78c0.7,0.38,1.4,0.76,2.1,1.14
	c0.48,0.26,0.97,0.51,1.45,0.77c0.71,0.37,1.42,0.74,2.14,1.1c0.49,0.25,0.98,0.49,1.47,0.74c0.73,0.36,1.46,0.73,2.2,1.08
	c0.49,0.24,0.98,0.47,1.47,0.7c0.75,0.36,1.51,0.71,2.27,1.06c0.48,0.22,0.97,0.43,1.45,0.65c0.78,0.35,1.57,0.7,2.36,1.04
	c0.47,0.2,0.95,0.4,1.42,0.6c0.82,0.35,1.64,0.69,2.48,1.02c0.45,0.18,0.9,0.36,1.35,0.53c0.87,0.34,1.74,0.68,2.63,1.01
	c0.41,0.15,0.82,0.3,1.24,0.45c0.94,0.34,1.88,0.68,2.83,1.01c0.36,0.12,0.72,0.24,1.07,0.36c1.02,0.35,2.05,0.69,3.08,1.02
	c0.26,0.08,0.53,0.16,0.8,0.25c1.14,0.36,2.28,0.71,3.44,1.05c0.12,0.04,0.25,0.07,0.37,0.11c8.3,2.39,17.11,4.25,26.51,5.43
	c0.01,0.01,0.03,0.01,0.04,0.02c1.71,0.21,3.43,0.41,5.18,0.58C1874.19,251.62,1874.74,251.64,1875.29,251.64"/>
<path class="st3" d="M1876.88,218.29c-5.24-0.51-10.26-1.29-15.1-2.29C1866.62,217,1871.64,217.78,1876.88,218.29"/>
<g>
	<g>
		<g>
			<defs>
				<rect id="SVGID_15_" x="1861.78" y="215.99" width="15.1" height="2.29"/>
			</defs>
			<clipPath id="SVGID_16_">
				<use xlink:href="#SVGID_15_"  style="overflow:visible;"/>
			</clipPath>
			<path class="st11" d="M1876.88,218.29c-5.24-0.51-10.26-1.29-15.1-2.29C1866.62,217,1871.64,217.78,1876.88,218.29"/>
		</g>
	</g>
</g>
<path class="st3" d="M2126.37,119.93l-113.54-0.31c2.44,1.71,4.96,3.45,7.61,5.21c6.84,4.56,14.17,8.39,21.76,11.63
	c-7.59,3.24-14.92,7.09-21.76,11.63c-2.42,1.61-4.8,3.26-7.16,4.95l113,0.31h0.04c0.48,0,0.95-0.03,1.42-0.07
	c0.14-0.01,0.29-0.02,0.43-0.04c0.4-0.04,0.79-0.11,1.18-0.18c0.16-0.03,0.32-0.05,0.48-0.09c0.37-0.08,0.74-0.18,1.1-0.28
	c0.16-0.05,0.33-0.09,0.49-0.14c0.35-0.11,0.7-0.24,1.04-0.38c0.16-0.06,0.32-0.12,0.48-0.19c0.34-0.15,0.66-0.31,0.99-0.48
	c0.15-0.08,0.31-0.15,0.46-0.23c0.32-0.18,0.63-0.37,0.94-0.57c0.14-0.09,0.28-0.18,0.42-0.27c0.3-0.21,0.59-0.43,0.88-0.66
	c0.13-0.1,0.26-0.2,0.39-0.3c0.28-0.24,0.55-0.49,0.82-0.74c0.12-0.11,0.24-0.22,0.35-0.33c0.26-0.26,0.51-0.54,0.75-0.82
	c0.11-0.12,0.22-0.24,0.32-0.36c0.23-0.29,0.45-0.59,0.67-0.89c0.09-0.13,0.19-0.25,0.28-0.39c0.21-0.31,0.4-0.64,0.59-0.96
	c0.08-0.14,0.17-0.27,0.24-0.41c0.18-0.33,0.34-0.68,0.5-1.03c0.06-0.14,0.14-0.28,0.2-0.42c0.15-0.36,0.28-0.73,0.41-1.1
	c0.05-0.14,0.11-0.28,0.15-0.43c0.12-0.38,0.21-0.78,0.3-1.17c0.03-0.14,0.08-0.28,0.1-0.42c0.08-0.4,0.14-0.82,0.19-1.23
	c0.02-0.14,0.05-0.28,0.06-0.42c0.04-0.4,0.05-0.81,0.07-1.22c0-0.16,0.02-0.32,0.02-0.48
	C2143.06,127.43,2135.59,119.93,2126.37,119.93"/>
<path class="st2" d="M2126.37,119.93l-113.54-0.31c2.44,1.71,4.96,3.45,7.61,5.21c6.84,4.56,14.17,8.39,21.76,11.63
	c-7.59,3.24-14.92,7.09-21.76,11.63c-2.42,1.61-4.8,3.26-7.16,4.95l113,0.31h0.04c0.48,0,0.95-0.03,1.42-0.07
	c0.14-0.01,0.29-0.02,0.43-0.04c0.4-0.04,0.79-0.11,1.18-0.18c0.16-0.03,0.32-0.05,0.48-0.09c0.37-0.08,0.74-0.18,1.1-0.28
	c0.16-0.05,0.33-0.09,0.49-0.14c0.35-0.11,0.7-0.24,1.04-0.38c0.16-0.06,0.32-0.12,0.48-0.19c0.34-0.15,0.66-0.31,0.99-0.48
	c0.15-0.08,0.31-0.15,0.46-0.23c0.32-0.18,0.63-0.37,0.94-0.57c0.14-0.09,0.28-0.18,0.42-0.27c0.3-0.21,0.59-0.43,0.88-0.66
	c0.13-0.1,0.26-0.2,0.39-0.3c0.28-0.24,0.55-0.49,0.82-0.74c0.12-0.11,0.24-0.22,0.35-0.33c0.26-0.26,0.51-0.54,0.75-0.82
	c0.11-0.12,0.22-0.24,0.32-0.36c0.23-0.29,0.45-0.59,0.67-0.89c0.09-0.13,0.19-0.25,0.28-0.39c0.21-0.31,0.4-0.64,0.59-0.96
	c0.08-0.14,0.17-0.27,0.24-0.41c0.18-0.33,0.34-0.68,0.5-1.03c0.06-0.14,0.14-0.28,0.2-0.42c0.15-0.36,0.28-0.73,0.41-1.1
	c0.05-0.14,0.11-0.28,0.15-0.43c0.12-0.38,0.21-0.78,0.3-1.17c0.03-0.14,0.08-0.28,0.1-0.42c0.08-0.4,0.14-0.82,0.19-1.23
	c0.02-0.14,0.05-0.28,0.06-0.42c0.04-0.4,0.05-0.81,0.07-1.22c0-0.16,0.02-0.32,0.02-0.48
	C2143.06,127.43,2135.59,119.93,2126.37,119.93"/>
<path class="st3" d="M1883.66,116.98c11.12-8.02,20.01-15.37,27.5-21.57c-10.98-7.44-19.76-14.33-27.5-20.66
	c-7.73,6.33-16.51,13.22-27.49,20.66C1863.66,101.61,1872.54,108.96,1883.66,116.98"/>
<g>
	<g>
		<g>
			<defs>
				<rect id="SVGID_17_" x="1856.17" y="74.74" width="54.98" height="42.24"/>
			</defs>
			<clipPath id="SVGID_18_">
				<use xlink:href="#SVGID_17_"  style="overflow:visible;"/>
			</clipPath>
			<path class="st12" d="M1883.66,116.98c11.12-8.02,20.01-15.37,27.5-21.57c-10.98-7.44-19.76-14.33-27.5-20.66
				c-7.73,6.33-16.51,13.22-27.49,20.66C1863.66,101.61,1872.54,108.96,1883.66,116.98"/>
		</g>
	</g>
</g>
<rect y="120.13" class="st2" width="1670.01" height="32.99"/>
</svg>
