<svg id="Layer_1" data-name="Layer 1" xmlns="http://www.w3.org/2000/svg" viewBox="0 0 334.25 119.66"><defs><style>.cls-1{fill:#413c69;}</style></defs><title>Skdadl with strap</title><path class="cls-1" d="M128.2,167.73q6.3,2.34,9.11,6.3l-.21,1.45-9.68,7.5H126a17.37,17.37,0,0,0-12-4.48,10.54,10.54,0,0,0-4.21.68,1.92,1.92,0,0,0-.21,3.7,49.31,49.31,0,0,0,5.46,2.29q8.76,3.22,11.56,5.15a17.72,17.72,0,0,1,4.17,3.75,10.38,10.38,0,0,1,1.82,3.8,16.1,16.1,0,0,1,.47,3.65,15.12,15.12,0,0,1-2.29,8.07,18.3,18.3,0,0,1-6.35,6.09Q117.31,220,106.8,220a42.06,42.06,0,0,1-15.31-2.71q-7-2.7-10-7.18l.32-1.46,9.89-7.92h1.46a20.21,20.21,0,0,0,13.64,6.15,7.66,7.66,0,0,0,4.27-1,3.08,3.08,0,0,0,1.56-2.61,2.31,2.31,0,0,0-.89-1.87,19.66,19.66,0,0,0-4.84-2.08q-11.76-4-15.1-7.61a12.12,12.12,0,0,1-3.33-8.43A14.57,14.57,0,0,1,91,174.91a18.31,18.31,0,0,1,7-6.09q6.56-3.44,16-3.44A40.08,40.08,0,0,1,128.2,167.73Z" transform="translate(-81.49 -146.22)"/><path class="cls-1" d="M186,202.14a3.64,3.64,0,0,0,2.7-.94l1.15.73-.21,14.37-.83,1.46a18.41,18.41,0,0,1-9.06,2.19,14.63,14.63,0,0,1-8.44-2.29,20.11,20.11,0,0,1-5.62-5.94l-7.6-12.29-1.25,1.25-3.23,18H133.21l9.06-51.34q.63-3.33-1.56-3.33a2.59,2.59,0,0,0-1.56.52l-1.15-.73.11-13.54.93-1.46a21.86,21.86,0,0,1,10.94-2.6q7.38,0,10.67,4.27t1.93,12.39l-3.75,20.73,16.14-17h21l.63,1.36-21.77,21.65,6.77,9.48C183,201.14,184.48,202.14,186,202.14Z" transform="translate(-81.49 -146.22)"/><path class="cls-1" d="M251.35,202.14a2.37,2.37,0,0,0,1.35-.52l1.15.73-.11,13.54-.73,1.45a20.11,20.11,0,0,1-5.2,1.93,24.61,24.61,0,0,1-5.52.68,13.48,13.48,0,0,1-6.09-1.36,9.58,9.58,0,0,1-4.22-3.85,28.59,28.59,0,0,1-6.46,3.33A30.89,30.89,0,0,1,214.59,220a22.67,22.67,0,0,1-8.8-1.72,20.71,20.71,0,0,1-7.08-4.84,22.74,22.74,0,0,1-4.64-7.29,23.91,23.91,0,0,1-1.66-9,33.17,33.17,0,0,1,2.91-13.69A30.43,30.43,0,0,1,212,167.31a27,27,0,0,1,10.05-1.93,21.6,21.6,0,0,1,13.12,4.38l3.43-19.69L257,147.78l1.46.94-8.85,50.09a3.72,3.72,0,0,0,.15,2.45A1.68,1.68,0,0,0,251.35,202.14Zm-23.75-1.67a11.7,11.7,0,0,0,3-4.21,13.71,13.71,0,0,0,1.1-5.47,8.18,8.18,0,0,0-2.24-5.88,7.38,7.38,0,0,0-5.57-2.35,9.07,9.07,0,0,0-3.75.84,10.5,10.5,0,0,0-3.23,2.18,11.1,11.1,0,0,0-2.4,4,14.25,14.25,0,0,0-.93,5,8.14,8.14,0,0,0,2.24,5.88,7.38,7.38,0,0,0,5.57,2.34A9.61,9.61,0,0,0,227.6,200.47Z" transform="translate(-81.49 -146.22)"/><path class="cls-1" d="M314.83,202.14a2.32,2.32,0,0,0,1.35-.52l1.15.73-.1,13.54-.73,1.45A23.51,23.51,0,0,1,305.67,220a13.48,13.48,0,0,1-6.09-1.36,9.63,9.63,0,0,1-4.22-3.85A28.67,28.67,0,0,1,278.07,220a22.74,22.74,0,0,1-8.8-1.72,20.71,20.71,0,0,1-7.08-4.84,22.72,22.72,0,0,1-4.63-7.29,23.92,23.92,0,0,1-1.67-9,34.51,34.51,0,0,1,3.59-15.62,28.62,28.62,0,0,1,9.95-11.35,30.52,30.52,0,0,1,16.14-4.79,21.24,21.24,0,0,1,8.9,1.93,22.55,22.55,0,0,1,7.24,5.15l1-5.83h16l-5.73,32.18a3.65,3.65,0,0,0,.16,2.45A1.66,1.66,0,0,0,314.83,202.14ZM291,200.47a11.68,11.68,0,0,0,3-4.21,13.71,13.71,0,0,0,1.1-5.47,8.18,8.18,0,0,0-2.24-5.88,7.38,7.38,0,0,0-5.57-2.35,9.11,9.11,0,0,0-3.75.84,10.5,10.5,0,0,0-3.23,2.18,10.94,10.94,0,0,0-2.39,4,14,14,0,0,0-.94,5,8.14,8.14,0,0,0,2.24,5.88,7.39,7.39,0,0,0,5.57,2.34A9.65,9.65,0,0,0,291,200.47Z" transform="translate(-81.49 -146.22)"/><path class="cls-1" d="M379.45,202.14a2.38,2.38,0,0,0,1.36-.52l1.14.73-.1,13.54-.73,1.45a20.32,20.32,0,0,1-5.21,1.93,24.47,24.47,0,0,1-5.52.68,13.54,13.54,0,0,1-6.09-1.36,9.68,9.68,0,0,1-4.22-3.85,28.32,28.32,0,0,1-6.45,3.33A30.89,30.89,0,0,1,342.7,220a22.72,22.72,0,0,1-8.81-1.72,20.71,20.71,0,0,1-7.08-4.84,22.89,22.89,0,0,1-4.63-7.29,23.92,23.92,0,0,1-1.67-9,33,33,0,0,1,2.92-13.69,30.46,30.46,0,0,1,16.71-16.14,27.05,27.05,0,0,1,10.05-1.93,21.58,21.58,0,0,1,13.12,4.38l3.44-19.69,18.32-2.29,1.46.94-8.85,50.09a3.71,3.71,0,0,0,.16,2.45A1.66,1.66,0,0,0,379.45,202.14Zm-23.74-1.67a11.7,11.7,0,0,0,3-4.21,13.7,13.7,0,0,0,1.09-5.47,8.18,8.18,0,0,0-2.24-5.88,7.36,7.36,0,0,0-5.57-2.35,9.11,9.11,0,0,0-3.75.84,10.63,10.63,0,0,0-3.23,2.18,10.94,10.94,0,0,0-2.39,4,14.27,14.27,0,0,0-.94,5,8.18,8.18,0,0,0,2.24,5.88,7.39,7.39,0,0,0,5.57,2.34A9.64,9.64,0,0,0,355.71,200.47Z" transform="translate(-81.49 -146.22)"/><path class="cls-1" d="M401.83,147.26q8,0,11.5,4.38t1.93,12.6l-6.66,34.57a3.72,3.72,0,0,0,.15,2.45,1.67,1.67,0,0,0,1.62.88,2.37,2.37,0,0,0,1.35-.52l1.15.73-.11,13.54-.73,1.45A22.84,22.84,0,0,1,401.51,220q-7.9,0-11.71-4.74t-2.14-13.38l6.46-33.43A4.06,4.06,0,0,0,394,166a1.49,1.49,0,0,0-1.46-.88,2.59,2.59,0,0,0-1.56.52l-1.15-.73.11-13.54.93-1.45a20.18,20.18,0,0,1,5.21-1.93A25.31,25.31,0,0,1,401.83,147.26Z" transform="translate(-81.49 -146.22)"/><path class="cls-1" d="M163.47,254.07v8h-1v-7.92c0-2.62-1.51-4.31-4.05-4.31a4.37,4.37,0,0,0-4.59,4.46V262h-1v-7.92c0-2.62-1.51-4.31-4.05-4.31a4.37,4.37,0,0,0-4.59,4.46V262h-1v-11.1c0-.79-.29-1.15-.77-1.15a1,1,0,0,0-.64.23l-.11,0-.23-.64,0-.08a1.66,1.66,0,0,1,1.08-.36c1,0,1.56.67,1.56,1.8v.85a5.22,5.22,0,0,1,4.74-2.65,4.55,4.55,0,0,1,4.62,3.16,5.23,5.23,0,0,1,5-3.16C161.58,248.91,163.47,251,163.47,254.07Z" transform="translate(-81.49 -146.22)"/><path class="cls-1" d="M178.88,261.91l-.06.08a1.57,1.57,0,0,1-1,.36c-1,0-1.59-.72-1.59-1.85V260a5.66,5.66,0,0,1-4.87,2.39c-2.74,0-4.92-1.54-4.92-4.13,0-2.85,2.59-4.1,5.44-4.1a10.37,10.37,0,0,1,4.33.95V253.5c0-2.48-2.21-3.69-4.38-3.69a5.67,5.67,0,0,0-4.26,2h-.08l-.61-.54v-.08a6.58,6.58,0,0,1,5-2.26c2.57,0,5.28,1.34,5.28,4.7v6.71c0,.8.28,1.16.77,1.16a1,1,0,0,0,.64-.24l.08,0Zm-2.72-4.46v-1.51a10.89,10.89,0,0,0-4.31-.95c-2.41,0-4.46,1.05-4.46,3.23,0,2,1.8,3.23,4,3.23C173.77,261.45,176.16,260,176.16,257.45Z" transform="translate(-81.49 -146.22)"/><path class="cls-1" d="M192.15,262l-.05.08a1.62,1.62,0,0,1-1,.31c-.95,0-1.54-.64-2.25-1.49l-4.39-5.33-2.13,2.15V262h-1v-17.3l.87-.16.1,0v11.85l7.13-7.26h1.13l0,.08-5.48,5.56,4.61,5.59c.52.64.95,1,1.46,1a1.05,1.05,0,0,0,.62-.21l.1,0Z" transform="translate(-81.49 -146.22)"/><path class="cls-1" d="M193.3,256a5.5,5.5,0,0,0,5.67,5.49,6.25,6.25,0,0,0,5-2.38h.08l.64.51v.1a7.15,7.15,0,0,1-5.69,2.67,6.47,6.47,0,0,1-6.69-6.72c0-3.79,2.56-6.72,6.46-6.72s6.25,2.93,6.25,6.62a1.8,1.8,0,0,1,0,.43Zm0-.84H204c-.18-3.13-2.1-5.31-5.23-5.31A5.32,5.32,0,0,0,193.3,255.12Z" transform="translate(-81.49 -146.22)"/><path class="cls-1" d="M225.58,249.32l-6.36,14.26c-.77,1.72-1.77,2.31-3,2.31a2.66,2.66,0,0,1-1.59-.47l0-.1.31-.66.1,0a2,2,0,0,0,1.18.38c.82,0,1.54-.46,2.08-1.69l.79-1.77-4.56-10.3c-.46-1-.72-1.44-1.25-1.46a1,1,0,0,0-.67.23l-.1,0-.26-.64.05-.08a1.62,1.62,0,0,1,1.08-.36c1.05,0,1.51.72,2,1.72l4.33,9.69,5-11.1h.94Z" transform="translate(-81.49 -146.22)"/><path class="cls-1" d="M240.39,255.63a6.79,6.79,0,1,1-6.79-6.72A6.61,6.61,0,0,1,240.39,255.63Zm-1,0a5.79,5.79,0,1,0-5.77,5.82A5.65,5.65,0,0,0,239.37,255.63Z" transform="translate(-81.49 -146.22)"/><path class="cls-1" d="M255.77,261.91l-.05.08a1.59,1.59,0,0,1-1.05.36c-1,0-1.59-.67-1.59-1.82v-.77a5.19,5.19,0,0,1-4.59,2.59,4.75,4.75,0,0,1-5.08-5.05v-8.08h1v8a3.94,3.94,0,0,0,4.23,4.2,4.38,4.38,0,0,0,4.43-4.46v-7.77h1v11.1c0,.8.25,1.16.74,1.16a1,1,0,0,0,.64-.24l.1,0Z" transform="translate(-81.49 -146.22)"/><path class="cls-1" d="M265.05,249.35l-.34.72-.1,0a2.73,2.73,0,0,0-1.28-.28c-1.92,0-3.64,1.69-3.64,4.56V262h-1v-11.1c0-.79-.29-1.15-.77-1.15a1,1,0,0,0-.64.23l-.11,0-.23-.64,0-.08a1.62,1.62,0,0,1,1.08-.36c1,0,1.56.65,1.56,1.8v.72a4.16,4.16,0,0,1,3.79-2.52,3.66,3.66,0,0,1,1.59.34Z" transform="translate(-81.49 -146.22)"/><path class="cls-1" d="M273.2,256a5.49,5.49,0,0,0,5.66,5.49,6.24,6.24,0,0,0,5-2.38h.08l.64.51v.1a7.15,7.15,0,0,1-5.69,2.67,6.47,6.47,0,0,1-6.69-6.72c0-3.79,2.56-6.72,6.46-6.72s6.25,2.93,6.25,6.62a2.69,2.69,0,0,1,0,.43Zm0-.84h10.71c-.18-3.13-2.1-5.31-5.23-5.31A5.31,5.31,0,0,0,273.2,255.12Z" transform="translate(-81.49 -146.22)"/><path class="cls-1" d="M291.35,248.91a4.81,4.81,0,0,1,4,2V251l-.64.46h-.08a3.87,3.87,0,0,0-3.23-1.67c-1.69,0-2.87,1-2.87,2.31s1.1,1.92,2.51,2.51c2.1.87,4.74,1.64,4.74,4.23,0,2.15-1.84,3.49-4.3,3.49a5.27,5.27,0,0,1-4.62-2.36v-.08l.62-.49h.1a4.27,4.27,0,0,0,3.82,2c2,0,3.41-1,3.41-2.56,0-1.95-2.15-2.57-4.25-3.46-1.52-.65-3-1.39-3-3.26S289.14,248.91,291.35,248.91Z" transform="translate(-81.49 -146.22)"/><path class="cls-1" d="M298,255.63a6.75,6.75,0,0,1,12.07-4.13v.11l-.59.46h-.1a5.69,5.69,0,0,0-4.66-2.26,5.82,5.82,0,1,0,4.66,9.38h.1l.59.47v.1A6.75,6.75,0,0,1,298,255.63Z" transform="translate(-81.49 -146.22)"/><path class="cls-1" d="M324.59,261.91l0,.08a1.59,1.59,0,0,1-1.05.36c-1,0-1.59-.72-1.59-1.85V260a5.66,5.66,0,0,1-4.87,2.39c-2.74,0-4.92-1.54-4.92-4.13,0-2.85,2.59-4.1,5.43-4.1a10.33,10.33,0,0,1,4.33.95V253.5c0-2.48-2.2-3.69-4.38-3.69a5.68,5.68,0,0,0-4.26,2h-.07l-.62-.54v-.08a6.6,6.6,0,0,1,5-2.26c2.56,0,5.28,1.34,5.28,4.7v6.71c0,.8.28,1.16.77,1.16a1,1,0,0,0,.64-.24l.07,0Zm-2.72-4.46v-1.51a10.8,10.8,0,0,0-4.3-.95c-2.41,0-4.46,1.05-4.46,3.23,0,2,1.79,3.23,4,3.23C319.49,261.45,321.87,260,321.87,257.45Z" transform="translate(-81.49 -146.22)"/><path class="cls-1" d="M340.23,255.63a6.4,6.4,0,0,1-6.46,6.72,6.17,6.17,0,0,1-5.44-3.1v6.64h-1V250.94c0-.79-.28-1.15-.77-1.15a1,1,0,0,0-.64.23l-.11,0-.23-.64,0-.08a1.62,1.62,0,0,1,1.08-.36c1,0,1.56.67,1.56,1.8v1.41a6.19,6.19,0,0,1,5.49-3.21A6.4,6.4,0,0,1,340.23,255.63Zm-1,0a5.52,5.52,0,0,0-5.46-5.82,5.83,5.83,0,1,0,5.46,5.82Z" transform="translate(-81.49 -146.22)"/><path class="cls-1" d="M343.58,256a5.5,5.5,0,0,0,5.67,5.49,6.27,6.27,0,0,0,5-2.38h.07l.64.51v.1a7.13,7.13,0,0,1-5.69,2.67,6.47,6.47,0,0,1-6.69-6.72c0-3.79,2.57-6.72,6.46-6.72s6.26,2.93,6.26,6.62a1.8,1.8,0,0,1,0,.43Zm0-.84H354.3c-.18-3.13-2.1-5.31-5.23-5.31A5.32,5.32,0,0,0,343.58,255.12Z" transform="translate(-81.49 -146.22)"/></svg>