<svg id="Layer_1" data-name="Layer 1" xmlns="http://www.w3.org/2000/svg" viewBox="0 0 375.75 82.88"><defs><style>.cls-1{fill:#413c69;}</style></defs><title>Skdadl without strap</title><path class="cls-1" d="M98.26,171.05c4.72,1.75,8.14,4.12,10.25,7.08l-.24,1.64L97.38,188.2H95.75a19.49,19.49,0,0,0-13.47-5,12,12,0,0,0-4.74.76,2.39,2.39,0,0,0-1.7,2.17,2.34,2.34,0,0,0,1.47,2,53.1,53.1,0,0,0,6.14,2.58q9.84,3.63,13,5.79a19.85,19.85,0,0,1,4.68,4.21,11.79,11.79,0,0,1,2.05,4.28,17.94,17.94,0,0,1,.53,4.09,16.89,16.89,0,0,1-2.58,9.08A20.52,20.52,0,0,1,94,225q-8,4.8-19.78,4.79a47.15,47.15,0,0,1-17.21-3q-7.84-3-11.24-8.08l.35-1.63,11.12-8.9h1.64A20.5,20.5,0,0,0,65.72,213a20.06,20.06,0,0,0,8.49,2,8.59,8.59,0,0,0,4.8-1.17,3.42,3.42,0,0,0,1.75-2.92,2.62,2.62,0,0,0-1-2.11,22.26,22.26,0,0,0-5.45-2.34q-13.23-4.46-17-8.55a13.61,13.61,0,0,1-3.75-9.48,16.41,16.41,0,0,1,2.87-9.31,20.67,20.67,0,0,1,7.9-6.84q7.38-3.87,18-3.87A45.14,45.14,0,0,1,98.26,171.05Z" transform="translate(-45.76 -146.88)"/><path class="cls-1" d="M163.25,209.74a4.09,4.09,0,0,0,3-1.06l1.29.82-.23,16.16-.94,1.64a20.82,20.82,0,0,1-10.19,2.45,16.43,16.43,0,0,1-9.48-2.57,22.47,22.47,0,0,1-6.32-6.68l-8.54-13.81-1.41,1.41-3.63,20.25H103.9l10.18-57.71c.47-2.5-.12-3.75-1.75-3.75a3,3,0,0,0-1.76.59l-1.29-.82.12-15.22,1-1.64a24.52,24.52,0,0,1,12.3-2.92q8.31,0,12,4.79t2.17,13.93l-4.22,23.3,18.15-19.08h23.65l.7,1.52-24.47,24.35,7.61,10.65Q160.67,209.75,163.25,209.74Z" transform="translate(-45.76 -146.88)"/><path class="cls-1" d="M236.7,209.74a2.66,2.66,0,0,0,1.52-.59l1.29.82-.12,15.22-.82,1.64a23.36,23.36,0,0,1-5.85,2.16,27.32,27.32,0,0,1-6.2.76,15.27,15.27,0,0,1-6.85-1.52,10.84,10.84,0,0,1-4.74-4.33,32.21,32.21,0,0,1-7.26,3.75,34.85,34.85,0,0,1-12.29,2.1,25.35,25.35,0,0,1-9.89-1.93,23.07,23.07,0,0,1-8-5.44,25.45,25.45,0,0,1-5.21-8.19,26.87,26.87,0,0,1-1.87-10.07,37.33,37.33,0,0,1,3.27-15.4,34.24,34.24,0,0,1,18.79-18.14,30.36,30.36,0,0,1,11.3-2.17,24.3,24.3,0,0,1,14.75,4.92l3.86-22.12,20.6-2.58,1.64,1.05L234.71,206a4.12,4.12,0,0,0,.18,2.75A1.86,1.86,0,0,0,236.7,209.74ZM210,207.86a13,13,0,0,0,3.34-4.74,15.41,15.41,0,0,0,1.23-6.14,9.2,9.2,0,0,0-2.52-6.62,8.34,8.34,0,0,0-6.26-2.63,10.24,10.24,0,0,0-4.22.94,12,12,0,0,0-3.63,2.45,12.4,12.4,0,0,0-2.69,4.45,16,16,0,0,0-1,5.62,9.21,9.21,0,0,0,2.51,6.61,8.31,8.31,0,0,0,6.27,2.64A10.85,10.85,0,0,0,210,207.86Z" transform="translate(-45.76 -146.88)"/><path class="cls-1" d="M308.07,209.74a2.69,2.69,0,0,0,1.52-.59l1.29.82-.12,15.22-.82,1.64a26.44,26.44,0,0,1-12.17,2.92,15.24,15.24,0,0,1-6.85-1.52,10.84,10.84,0,0,1-4.74-4.33q-8.08,5.85-19.44,5.85a25.38,25.38,0,0,1-9.89-1.93,23.26,23.26,0,0,1-8-5.44,25.62,25.62,0,0,1-5.21-8.19,26.87,26.87,0,0,1-1.87-10.07,38.74,38.74,0,0,1,4-17.56A32,32,0,0,1,257,173.8a34.43,34.43,0,0,1,18.14-5.39,23.85,23.85,0,0,1,10,2.17,25.86,25.86,0,0,1,8.14,5.79l1.17-6.55h18L306.08,206a4.13,4.13,0,0,0,.17,2.75A1.88,1.88,0,0,0,308.07,209.74Zm-26.81-1.88a13,13,0,0,0,3.34-4.74,15.41,15.41,0,0,0,1.23-6.14,9.24,9.24,0,0,0-2.52-6.62,8.34,8.34,0,0,0-6.26-2.63,10.24,10.24,0,0,0-4.22.94,12,12,0,0,0-3.63,2.45,12.4,12.4,0,0,0-2.69,4.45,16,16,0,0,0-1.05,5.62A9.17,9.17,0,0,0,268,207.8a8.31,8.31,0,0,0,6.27,2.64A10.85,10.85,0,0,0,281.26,207.86Z" transform="translate(-45.76 -146.88)"/><path class="cls-1" d="M380.71,209.74a2.66,2.66,0,0,0,1.52-.59l1.29.82-.12,15.22-.82,1.64a23.36,23.36,0,0,1-5.85,2.16,27.39,27.39,0,0,1-6.2.76,15.24,15.24,0,0,1-6.85-1.52,10.84,10.84,0,0,1-4.74-4.33,32.21,32.21,0,0,1-7.26,3.75,34.89,34.89,0,0,1-12.29,2.1,25.31,25.31,0,0,1-9.89-1.93,23.07,23.07,0,0,1-8-5.44,25.28,25.28,0,0,1-5.21-8.19,26.88,26.88,0,0,1-1.88-10.07,37.18,37.18,0,0,1,3.28-15.4,34.24,34.24,0,0,1,18.79-18.14,30.36,30.36,0,0,1,11.3-2.17,24.3,24.3,0,0,1,14.75,4.92l3.86-22.12,20.6-2.58,1.64,1.05L378.72,206a4.06,4.06,0,0,0,.18,2.75A1.86,1.86,0,0,0,380.71,209.74ZM354,207.86a13,13,0,0,0,3.34-4.74,15.41,15.41,0,0,0,1.23-6.14,9.2,9.2,0,0,0-2.52-6.62,8.34,8.34,0,0,0-6.26-2.63,10.24,10.24,0,0,0-4.22.94,12,12,0,0,0-3.63,2.45,12.4,12.4,0,0,0-2.69,4.45,16,16,0,0,0-1,5.62,9.17,9.17,0,0,0,2.51,6.61,8.31,8.31,0,0,0,6.27,2.64A10.85,10.85,0,0,0,354,207.86Z" transform="translate(-45.76 -146.88)"/><path class="cls-1" d="M405.86,148.05q9,0,12.94,4.91T421,167.13L413.47,206a4.19,4.19,0,0,0,.18,2.75,1.86,1.86,0,0,0,1.81,1,2.69,2.69,0,0,0,1.52-.59l1.29.82-.11,15.22-.82,1.64a25.76,25.76,0,0,1-11.83,2.92q-8.89,0-13.17-5.32t-2.4-15l7.26-37.58a4.53,4.53,0,0,0-.12-2.75,1.65,1.65,0,0,0-1.63-1,3,3,0,0,0-1.76.59l-1.29-.82.12-15.22,1.05-1.64a23.12,23.12,0,0,1,5.85-2.16A28.28,28.28,0,0,1,405.86,148.05Z" transform="translate(-45.76 -146.88)"/></svg>