<?xml version="1.0" encoding="utf-8"?>
<!-- Generator: Adobe Illustrator 23.0.6, SVG Export Plug-In . SVG Version: 6.00 Build 0)  -->
<svg version="1.1" id="Layer_1" xmlns="http://www.w3.org/2000/svg" xmlns:xlink="http://www.w3.org/1999/xlink" x="0px" y="0px"
	 viewBox="0 0 334.25 73.72" style="enable-background:new 0 0 334.25 73.72;" xml:space="preserve">
<style type="text/css">
	.st0{fill:#403C69;}
</style>
<g>
	<path class="st0" d="M46.7,21.5c4.2,1.56,7.24,3.66,9.11,6.3l-0.21,1.46l-9.68,7.5h-1.46c-3.33-2.98-7.33-4.48-11.98-4.48
		c-1.81,0-3.21,0.23-4.22,0.68c-1.01,0.45-1.51,1.09-1.51,1.93c0,0.7,0.43,1.29,1.3,1.77c0.87,0.49,2.69,1.25,5.47,2.29
		c5.83,2.15,9.68,3.87,11.56,5.15c1.87,1.28,3.26,2.53,4.17,3.75c0.9,1.22,1.51,2.48,1.82,3.8c0.31,1.32,0.47,2.53,0.47,3.65
		c0,2.92-0.77,5.61-2.29,8.07c-1.53,2.46-3.65,4.5-6.35,6.09c-4.72,2.85-10.59,4.27-17.6,4.27c-5.56,0-10.66-0.9-15.31-2.71
		c-4.65-1.8-7.99-4.2-10-7.18l0.31-1.46l9.89-7.91h1.46c1.46,1.67,3.49,3.11,6.09,4.32c2.6,1.22,5.12,1.82,7.55,1.82
		c1.8,0,3.23-0.35,4.27-1.04c1.04-0.69,1.56-1.56,1.56-2.6c0-0.76-0.3-1.39-0.89-1.87c-0.59-0.49-2.2-1.18-4.84-2.08
		c-7.85-2.64-12.88-5.17-15.1-7.6c-2.22-2.43-3.33-5.24-3.33-8.43c0-2.98,0.85-5.74,2.55-8.28c1.7-2.53,4.04-4.56,7.03-6.09
		c4.37-2.29,9.72-3.44,16.04-3.44C37.8,19.16,42.5,19.94,46.7,21.5z"/>
	<path class="st0" d="M104.51,55.92c1.18,0,2.08-0.31,2.71-0.94l1.15,0.73l-0.21,14.37l-0.83,1.46c-2.64,1.46-5.66,2.18-9.06,2.18
		c-3.4,0-6.21-0.76-8.43-2.29c-2.22-1.53-4.1-3.5-5.62-5.94l-7.6-12.29l-1.25,1.25l-3.23,18.01H51.72l9.06-51.34
		c0.42-2.22-0.11-3.33-1.56-3.33c-0.56,0-1.08,0.18-1.56,0.52l-1.15-0.73l0.11-13.54l0.94-1.46C60.6,0.87,64.25,0,68.48,0
		c4.93,0,8.49,1.42,10.67,4.27c2.19,2.85,2.83,6.98,1.93,12.39l-3.75,20.72l16.14-16.97h21.04l0.62,1.35L93.37,43.42l6.77,9.48
		C101.53,54.91,102.99,55.92,104.51,55.92z"/>
	<path class="st0" d="M169.85,55.92c0.42,0,0.87-0.17,1.35-0.52l1.15,0.73l-0.11,13.54l-0.73,1.46c-1.53,0.83-3.26,1.47-5.21,1.93
		c-1.94,0.45-3.78,0.68-5.52,0.68c-2.22,0-4.25-0.45-6.09-1.35c-1.84-0.9-3.25-2.19-4.22-3.85c-2.15,1.46-4.31,2.57-6.46,3.33
		c-3.33,1.25-6.98,1.87-10.93,1.87c-3.12,0-6.06-0.57-8.8-1.72c-2.74-1.15-5.1-2.76-7.08-4.84c-1.98-2.08-3.52-4.51-4.63-7.29
		c-1.11-2.78-1.66-5.76-1.66-8.96c0-4.79,0.97-9.35,2.91-13.69c1.94-4.34,4.62-7.97,8.02-10.88c2.57-2.22,5.47-3.97,8.7-5.26
		c3.23-1.28,6.58-1.93,10.05-1.93c4.79,0,9.16,1.46,13.12,4.37l3.44-19.68l18.33-2.29l1.46,0.94l-8.85,50.09
		c-0.21,1.04-0.16,1.86,0.16,2.45C168.55,55.62,169.09,55.92,169.85,55.92z M146.11,54.25c1.25-1.11,2.24-2.52,2.97-4.22
		c0.73-1.7,1.09-3.52,1.09-5.47c0-2.36-0.75-4.32-2.24-5.88c-1.49-1.56-3.35-2.34-5.57-2.34c-1.25,0-2.5,0.28-3.75,0.83
		c-1.25,0.56-2.33,1.29-3.23,2.19c-0.97,0.97-1.77,2.29-2.39,3.96c-0.63,1.67-0.94,3.33-0.94,5c0,2.36,0.75,4.32,2.24,5.88
		c1.49,1.56,3.35,2.34,5.57,2.34C142.15,56.54,144.24,55.78,146.11,54.25z"/>
	<path class="st0" d="M233.34,55.92c0.42,0,0.87-0.17,1.35-0.52l1.15,0.73l-0.11,13.54L235,71.12c-3.4,1.73-7.01,2.6-10.83,2.6
		c-2.22,0-4.25-0.45-6.09-1.35c-1.84-0.9-3.25-2.19-4.22-3.85c-4.79,3.47-10.55,5.21-17.29,5.21c-3.12,0-6.06-0.57-8.8-1.72
		c-2.75-1.15-5.1-2.76-7.08-4.84c-1.98-2.08-3.53-4.51-4.64-7.29c-1.11-2.78-1.66-5.76-1.66-8.96c0-5.62,1.2-10.83,3.59-15.62
		c2.4-4.79,5.71-8.57,9.95-11.35c2.22-1.46,4.75-2.62,7.6-3.49c2.84-0.87,5.69-1.3,8.54-1.3c3.12,0,6.09,0.64,8.9,1.93
		c2.81,1.29,5.22,3,7.24,5.15l1.04-5.83h16.04l-5.73,32.18c-0.21,1.04-0.16,1.86,0.16,2.45C232.04,55.62,232.57,55.92,233.34,55.92z
		 M209.49,54.25c1.25-1.11,2.24-2.52,2.97-4.22c0.73-1.7,1.09-3.52,1.09-5.47c0-2.36-0.75-4.32-2.24-5.88
		c-1.5-1.56-3.35-2.34-5.57-2.34c-1.25,0-2.5,0.28-3.75,0.83c-1.25,0.56-2.33,1.29-3.23,2.19c-0.97,0.97-1.77,2.29-2.39,3.96
		c-0.63,1.67-0.94,3.33-0.94,5c0,2.36,0.75,4.32,2.24,5.88c1.49,1.56,3.35,2.34,5.57,2.34C205.53,56.54,207.62,55.78,209.49,54.25z"
		/>
	<path class="st0" d="M297.96,55.92c0.42,0,0.87-0.17,1.35-0.52l1.14,0.73l-0.1,13.54l-0.73,1.46c-1.53,0.83-3.26,1.47-5.21,1.93
		c-1.94,0.45-3.78,0.68-5.52,0.68c-2.22,0-4.25-0.45-6.09-1.35c-1.84-0.9-3.25-2.19-4.22-3.85c-2.15,1.46-4.31,2.57-6.45,3.33
		c-3.33,1.25-6.98,1.87-10.93,1.87c-3.13,0-6.06-0.57-8.8-1.72c-2.74-1.15-5.1-2.76-7.08-4.84c-1.98-2.08-3.52-4.51-4.63-7.29
		c-1.11-2.78-1.67-5.76-1.67-8.96c0-4.79,0.97-9.35,2.92-13.69c1.94-4.34,4.62-7.97,8.02-10.88c2.57-2.22,5.47-3.97,8.7-5.26
		c3.23-1.28,6.58-1.93,10.05-1.93c4.79,0,9.16,1.46,13.12,4.37l3.44-19.68l18.33-2.29l1.46,0.94l-8.85,50.09
		c-0.21,1.04-0.16,1.86,0.16,2.45C296.66,55.62,297.19,55.92,297.96,55.92z M274.22,54.25c1.25-1.11,2.24-2.52,2.97-4.22
		c0.73-1.7,1.09-3.52,1.09-5.47c0-2.36-0.75-4.32-2.24-5.88c-1.49-1.56-3.35-2.34-5.57-2.34c-1.25,0-2.5,0.28-3.75,0.83
		c-1.25,0.56-2.33,1.29-3.23,2.19c-0.97,0.97-1.77,2.29-2.4,3.96c-0.62,1.67-0.94,3.33-0.94,5c0,2.36,0.75,4.32,2.24,5.88
		c1.49,1.56,3.35,2.34,5.57,2.34C270.26,56.54,272.34,55.78,274.22,54.25z"/>
	<path class="st0" d="M320.33,1.04c5.34,0,9.18,1.46,11.51,4.37c2.32,2.92,2.97,7.12,1.93,12.6l-6.66,34.57
		c-0.21,1.04-0.16,1.86,0.15,2.45c0.31,0.59,0.85,0.88,1.62,0.88c0.42,0,0.87-0.17,1.35-0.52l1.15,0.73l-0.1,13.54l-0.73,1.46
		c-3.4,1.73-6.91,2.6-10.52,2.6c-5.28,0-9.18-1.58-11.71-4.74c-2.54-3.16-3.25-7.62-2.14-13.38l6.46-33.43
		c0.21-1.04,0.17-1.86-0.1-2.45c-0.28-0.59-0.77-0.88-1.46-0.88c-0.56,0-1.08,0.17-1.56,0.52l-1.15-0.73l0.1-13.54l0.94-1.46
		c1.53-0.83,3.26-1.47,5.21-1.93C316.55,1.27,318.46,1.04,320.33,1.04z"/>
</g>
</svg>
